<svg xmlns="http://www.w3.org/2000/svg" viewBox="0 0 240 240">
  <!-- ECXC club crest: the tile monogram in the ring, Alumni Sans
       Bold arc text, all outlines. currentColor. -->
  <circle cx="120" cy="120" r="114" fill="none" stroke="currentColor" stroke-width="6"/>
  <circle cx="120" cy="120" r="98" fill="none" stroke="currentColor" stroke-width="1.8"/>
  <circle cx="120" cy="120" r="62" fill="none" stroke="currentColor" stroke-width="1.8"/>
  <rect x="36" y="116" width="8" height="8" transform="rotate(45 40 120)" fill="currentColor"/>
  <rect x="196" y="116" width="8" height="8" transform="rotate(45 200 120)" fill="currentColor"/>
  <path d="M56.53 90.35 45.5 84.68 48.11 79.59 49.64 80.38 48.18 83.2 51.14 84.72 52.37 82.32 54.08 83.2 52.85 85.6 56.21 87.32 57.66 84.5 59.15 85.26Z" fill="currentColor"/>
  <path d="M61.52 81.32 52.9 72.13 54.98 69.33 66.24 75 64.61 77.18 62.54 76.13 61.47 77.57 63.09 79.22ZM60.52 76.81 61.56 75.41 55.64 72.08Z" fill="currentColor"/>
  <path d="M72.05 69.22Q71.24 69.97 70.45 70.29Q69.66 70.6 68.81 70.3Q67.96 70 66.97 68.94L66.46 68.4Q66.92 67.97 67.38 67.53Q67.84 67.1 68.3 66.66L68.95 67.35Q69.49 67.92 69.86 68.13Q70.24 68.35 70.51 68.31Q70.79 68.26 71.01 68.05Q71.36 67.72 71.33 67.27Q71.3 66.82 70.61 66.1Q70.08 65.52 69.63 65.41Q69.19 65.29 68.65 65.47Q68.1 65.65 67.26 65.97Q66.5 66.24 65.85 66.24Q65.19 66.25 64.56 65.92Q63.94 65.59 63.28 64.9Q62.44 64.01 62.16 63.23Q61.87 62.46 62.19 61.68Q62.51 60.9 63.46 60Q64.69 58.84 65.84 58.77Q66.99 58.69 67.97 59.74L69 60.83Q68.56 61.25 68.12 61.66Q67.68 62.07 67.23 62.49L66.71 61.94Q66.07 61.26 65.64 61.13Q65.22 61 64.81 61.39Q64.4 61.77 64.47 62.18Q64.54 62.58 65.05 63.12Q65.53 63.63 66 63.72Q66.46 63.81 66.93 63.66Q67.39 63.5 67.88 63.3Q68.8 62.91 69.48 62.78Q70.16 62.66 70.8 62.93Q71.43 63.21 72.25 64.08Q73.17 65.06 73.39 65.94Q73.6 66.83 73.24 67.64Q72.87 68.44 72.05 69.22Z" fill="currentColor"/>
  <path d="M79.92 62.6 73.95 53.73 72.35 54.8 71.4 53.37 76.62 49.86 77.58 51.28 75.97 52.37 81.94 61.24Z" fill="currentColor"/>
  <path d="M98.09 53.78Q97.1 54.11 96.28 54.13Q95.45 54.14 94.78 53.56Q94.12 52.98 93.64 51.54L91.58 45.36Q91.24 44.31 91.47 43.6Q91.71 42.88 92.39 42.4Q93.07 41.92 94.05 41.59Q95.05 41.26 95.85 41.25Q96.65 41.24 97.24 41.69Q97.83 42.13 98.18 43.17L98.99 45.62L96.68 46.38L95.83 43.84Q95.67 43.36 95.47 43.15Q95.27 42.95 95.03 42.94Q94.79 42.93 94.52 43.02Q94.24 43.11 94.05 43.26Q93.87 43.41 93.83 43.7Q93.79 43.98 93.95 44.47L96.32 51.59Q96.48 52.07 96.68 52.28Q96.88 52.49 97.12 52.5Q97.36 52.51 97.64 52.42Q97.92 52.32 98.1 52.17Q98.29 52.02 98.32 51.73Q98.36 51.44 98.2 50.97L97.43 48.65L99.74 47.88L100.23 49.34Q100.71 50.8 100.55 51.65Q100.39 52.51 99.74 52.98Q99.09 53.45 98.09 53.78Z" fill="currentColor"/>
  <path d="M109.96 50.98Q108.95 51.12 108.15 50.99Q107.35 50.86 106.81 50.17Q106.27 49.48 106.05 47.98L105.12 41.53Q104.96 40.44 105.3 39.78Q105.64 39.12 106.39 38.76Q107.13 38.41 108.13 38.26Q109.15 38.12 109.96 38.25Q110.77 38.38 111.3 38.91Q111.84 39.45 111.99 40.54L112.92 46.97Q113.15 48.49 112.81 49.31Q112.47 50.12 111.73 50.48Q110.99 50.83 109.96 50.98ZM109.76 49.55Q110.07 49.51 110.3 49.38Q110.52 49.24 110.62 48.96Q110.71 48.68 110.64 48.22L109.57 40.79Q109.5 40.33 109.33 40.08Q109.16 39.84 108.9 39.78Q108.65 39.71 108.34 39.76Q108.03 39.8 107.82 39.94Q107.6 40.07 107.5 40.35Q107.4 40.63 107.46 41.1L108.54 48.52Q108.61 48.99 108.78 49.23Q108.96 49.47 109.21 49.53Q109.45 49.6 109.76 49.55Z" fill="currentColor"/>
  <path d="M119.02 49.85 119.69 37.45 122.73 37.62 123.99 45.72 126.15 37.8 129.16 37.96 128.49 50.36 126.35 50.24 126.85 40.98 124.59 50.15 122.93 50.06 121.67 40.7 121.17 49.96Z" fill="currentColor"/>
  <path d="M134.21 51.29 137.54 39.34 140.48 40.16 139.96 48.34 143.77 41.07 146.68 41.88 143.35 53.84 141.29 53.26 143.78 44.33 139.58 52.79 137.99 52.35 138.77 42.94 136.28 51.87Z" fill="currentColor"/>
  <path d="M151.61 57.83Q150.94 57.48 150.43 57.1Q149.91 56.72 149.65 56.22Q149.39 55.71 149.47 55.01Q149.55 54.3 150.06 53.3L154.28 44.98L156.46 46.08L151.92 55.01Q151.71 55.42 151.72 55.7Q151.72 55.99 151.89 56.17Q152.05 56.36 152.29 56.48Q152.53 56.6 152.78 56.63Q153.03 56.65 153.26 56.49Q153.5 56.32 153.71 55.91L158.24 46.99L160.41 48.09L156.19 56.4Q155.68 57.4 155.15 57.89Q154.62 58.37 154.06 58.46Q153.51 58.55 152.89 58.36Q152.28 58.17 151.61 57.83Z" fill="currentColor"/>
  <path d="M159.64 62.2 167.14 52.32 168.84 53.6 166.33 61.15 170.88 55.16 172.59 56.46 165.08 66.34 163.39 65.06 165.6 57.91 161.35 63.5Z" fill="currentColor"/>
  <path d="M169.28 70.27 178.17 61.61 179.87 63.36 170.98 72.02Z" fill="currentColor"/>
  <path d="M175.52 77.35 184.11 70.98 182.97 69.44 184.35 68.42 188.09 73.47 186.71 74.5 185.56 72.94 176.97 79.3Z" fill="currentColor"/>
  <path d="M181.55 86.63 186.23 84.2 191.49 78.85 192.61 81.01 189.81 83.68 189.17 84.17 189.94 83.94 193.77 83.25 194.8 85.23 187.23 86.42 182.67 88.79Z" fill="currentColor"/>
  <path d="M56.29 181.07Q55.57 180.32 55.2 179.58Q54.84 178.84 55.07 177.99Q55.31 177.14 56.41 176.09L61.11 171.58Q61.91 170.82 62.66 170.73Q63.41 170.63 64.14 171.04Q64.86 171.45 65.58 172.2Q66.31 172.96 66.66 173.68Q67.01 174.4 66.86 175.12Q66.71 175.85 65.92 176.6L64.06 178.39L62.37 176.63L64.31 174.77Q64.68 174.42 64.78 174.15Q64.88 173.88 64.78 173.66Q64.69 173.44 64.49 173.23Q64.29 173.02 64.07 172.92Q63.85 172.81 63.58 172.9Q63.31 172.99 62.94 173.34L57.51 178.53Q57.15 178.88 57.05 179.15Q56.94 179.42 57.04 179.65Q57.13 179.87 57.33 180.08Q57.54 180.29 57.75 180.39Q57.97 180.49 58.24 180.4Q58.52 180.31 58.88 179.97L60.65 178.28L62.33 180.04L61.22 181.1Q60.11 182.16 59.27 182.38Q58.43 182.6 57.73 182.22Q57.02 181.83 56.29 181.07Z" fill="currentColor"/>
  <path d="M62.95 187.09 70.6 177.32 74.17 180.12Q75.15 180.88 75.3 181.71Q75.46 182.53 74.85 183.31L73.65 184.84Q73.05 185.62 72.22 185.83Q71.39 186.03 70.46 185.42L70.45 185.43Q70.96 185.95 70.97 186.43Q70.98 186.91 70.65 187.69L68.93 191.78L66.8 190.11L68.63 186.31Q68.84 185.85 68.93 185.48Q69.02 185.11 68.78 184.93L68.22 184.48L64.95 188.66ZM69.27 183.14 70.07 183.77Q70.52 184.13 70.93 184.03Q71.33 183.92 71.77 183.37L72.69 182.18Q73.1 181.66 73.09 181.31Q73.08 180.95 72.7 180.65L71.78 179.93Z" fill="currentColor"/>
  <path d="M76.03 196.52Q75.15 196.01 74.6 195.41Q74.05 194.81 74.05 193.94Q74.05 193.06 74.8 191.74L78.05 186.09Q78.6 185.14 79.27 184.83Q79.95 184.52 80.75 184.7Q81.55 184.88 82.44 185.39Q83.33 185.9 83.89 186.5Q84.44 187.1 84.53 187.85Q84.62 188.6 84.07 189.55L80.84 195.19Q80.07 196.53 79.3 196.96Q78.53 197.4 77.73 197.21Q76.93 197.03 76.03 196.52ZM76.75 195.28Q77.02 195.43 77.28 195.47Q77.54 195.5 77.79 195.34Q78.04 195.17 78.27 194.77L82.01 188.26Q82.24 187.85 82.26 187.56Q82.27 187.26 82.11 187.05Q81.95 186.84 81.68 186.69Q81.41 186.54 81.16 186.51Q80.9 186.48 80.65 186.63Q80.4 186.79 80.16 187.2L76.43 193.71Q76.19 194.12 76.18 194.41Q76.17 194.71 76.33 194.92Q76.48 195.12 76.75 195.28Z" fill="currentColor"/>
  <path d="M87.13 201.8Q86.1 201.39 85.49 200.8Q84.87 200.22 84.79 199.32Q84.7 198.42 85.24 197.07L85.52 196.38Q86.11 196.62 86.69 196.85Q87.28 197.09 87.87 197.33L87.52 198.2Q87.23 198.93 87.19 199.36Q87.15 199.79 87.31 200.02Q87.46 200.25 87.75 200.37Q88.2 200.55 88.59 200.33Q88.99 200.11 89.36 199.18Q89.65 198.45 89.57 198Q89.49 197.55 89.1 197.13Q88.7 196.71 88.06 196.08Q87.5 195.51 87.22 194.92Q86.94 194.33 86.97 193.62Q87.01 192.91 87.36 192.03Q87.82 190.89 88.4 190.31Q88.98 189.72 89.82 189.68Q90.66 189.65 91.88 190.13Q93.45 190.76 94 191.77Q94.55 192.78 94.01 194.12L93.45 195.5Q92.89 195.28 92.33 195.05Q91.77 194.83 91.21 194.6L91.49 193.89Q91.84 193.03 91.77 192.59Q91.71 192.15 91.19 191.94Q90.67 191.73 90.33 191.96Q90 192.2 89.72 192.89Q89.46 193.54 89.57 194Q89.68 194.46 90.02 194.81Q90.36 195.17 90.75 195.53Q91.49 196.2 91.89 196.76Q92.29 197.33 92.3 198.02Q92.32 198.71 91.88 199.82Q91.38 201.07 90.66 201.63Q89.95 202.2 89.06 202.21Q88.17 202.22 87.13 201.8Z" fill="currentColor"/>
  <path d="M98.76 205.56Q97.69 205.29 97 204.8Q96.31 204.3 96.1 203.42Q95.89 202.55 96.23 201.14L96.41 200.42Q97.03 200.57 97.65 200.72Q98.26 200.87 98.88 201.03L98.65 201.94Q98.46 202.7 98.49 203.14Q98.51 203.57 98.69 203.78Q98.88 203.98 99.17 204.05Q99.65 204.17 100.01 203.9Q100.37 203.63 100.61 202.66Q100.79 201.9 100.65 201.46Q100.51 201.03 100.06 200.67Q99.61 200.3 98.89 199.77Q98.26 199.28 97.9 198.74Q97.54 198.19 97.47 197.48Q97.41 196.78 97.64 195.85Q97.93 194.66 98.43 194Q98.92 193.34 99.75 193.19Q100.58 193.03 101.85 193.35Q103.49 193.75 104.17 194.68Q104.86 195.6 104.51 197L104.15 198.45Q103.56 198.3 102.98 198.16Q102.4 198.02 101.8 197.87L101.98 197.12Q102.21 196.22 102.08 195.79Q101.96 195.36 101.41 195.23Q100.87 195.09 100.57 195.37Q100.27 195.65 100.09 196.37Q99.92 197.06 100.1 197.5Q100.27 197.94 100.66 198.24Q101.04 198.55 101.47 198.85Q102.3 199.41 102.77 199.91Q103.25 200.42 103.36 201.1Q103.47 201.79 103.19 202.94Q102.86 204.25 102.24 204.91Q101.61 205.57 100.73 205.7Q99.85 205.83 98.76 205.56Z" fill="currentColor"/>
  <path d="M118.5 208.24Q117.47 208.22 116.68 207.96Q115.89 207.7 115.46 206.93Q115.02 206.16 115.05 204.65L115.17 198.13Q115.19 197.03 115.65 196.43Q116.11 195.84 116.91 195.61Q117.71 195.38 118.74 195.4Q119.8 195.42 120.56 195.68Q121.31 195.93 121.72 196.55Q122.13 197.16 122.11 198.26L122.07 200.84L119.63 200.79L119.68 198.11Q119.69 197.6 119.57 197.34Q119.45 197.08 119.22 196.99Q119 196.9 118.71 196.9Q118.42 196.89 118.19 196.98Q117.97 197.06 117.84 197.31Q117.71 197.57 117.7 198.08L117.56 205.59Q117.56 206.08 117.68 206.35Q117.8 206.62 118.02 206.71Q118.24 206.8 118.53 206.8Q118.83 206.81 119.05 206.73Q119.28 206.64 119.41 206.38Q119.54 206.12 119.55 205.62L119.59 203.18L122.03 203.22L122 204.76Q121.97 206.3 121.54 207.05Q121.1 207.8 120.33 208.03Q119.56 208.26 118.5 208.24Z" fill="currentColor"/>
  <path d="M130.77 207.59Q129.76 207.72 128.96 207.57Q128.16 207.42 127.64 206.72Q127.11 206.02 126.93 204.51L126.13 198.05Q125.99 196.95 126.35 196.3Q126.71 195.64 127.46 195.3Q128.2 194.97 129.21 194.84Q130.23 194.72 131.04 194.86Q131.85 195.01 132.37 195.56Q132.89 196.11 133.02 197.19L133.82 203.64Q134.01 205.17 133.66 205.98Q133.3 206.79 132.55 207.13Q131.8 207.47 130.77 207.59ZM130.61 206.16Q130.92 206.13 131.14 206Q131.37 205.87 131.47 205.59Q131.57 205.31 131.51 204.85L130.59 197.4Q130.54 196.93 130.37 196.69Q130.21 196.44 129.95 196.37Q129.7 196.3 129.39 196.34Q129.08 196.38 128.86 196.51Q128.64 196.63 128.53 196.91Q128.43 197.19 128.49 197.66L129.4 205.11Q129.46 205.57 129.63 205.82Q129.8 206.06 130.05 206.13Q130.29 206.2 130.61 206.16Z" fill="currentColor"/>
  <path d="M143.08 205.18Q142.36 205.38 141.72 205.44Q141.09 205.5 140.56 205.3Q140.03 205.1 139.61 204.52Q139.19 203.95 138.9 202.86L136.46 193.86L138.81 193.22L141.43 202.88Q141.55 203.32 141.74 203.53Q141.94 203.74 142.18 203.77Q142.43 203.79 142.69 203.72Q142.95 203.65 143.15 203.51Q143.35 203.36 143.42 203.08Q143.48 202.8 143.36 202.36L140.74 192.69L143.09 192.06L145.52 201.05Q145.82 202.14 145.75 202.85Q145.68 203.57 145.33 204Q144.97 204.44 144.39 204.71Q143.81 204.98 143.08 205.18Z" fill="currentColor"/>
  <path d="M151.74 202.15 146.82 190.75 148.77 189.91 154.11 195.8 151.13 188.89 153.1 188.04 158.02 199.44 156.07 200.28 150.93 194.85 153.71 201.3Z" fill="currentColor"/>
  <path d="M164.17 196.12 158.67 186.95 157.03 187.93 156.14 186.46 161.54 183.23 162.42 184.7 160.76 185.7 166.26 194.87Z" fill="currentColor"/>
  <path d="M172.1 191 164.37 181.3 167.91 178.48Q168.88 177.7 169.72 177.74Q170.56 177.78 171.17 178.55L172.39 180.07Q173 180.84 173.01 181.69Q173.02 182.55 172.21 183.31L172.22 183.32Q172.84 182.94 173.31 183.05Q173.78 183.15 174.46 183.65L178.05 186.27L175.93 187.95L172.65 185.29Q172.25 184.99 171.91 184.81Q171.58 184.64 171.34 184.83L170.78 185.28L174.09 189.42ZM169.72 183.94 170.52 183.31Q170.97 182.95 170.96 182.53Q170.95 182.11 170.52 181.57L169.58 180.39Q169.17 179.87 168.81 179.8Q168.46 179.73 168.08 180.03L167.17 180.75Z" fill="currentColor"/>
  <path d="M182.97 181.49 179.14 177.85 172.37 174.63 174.04 172.87 177.48 174.64 178.15 175.08 177.68 174.43 175.77 171.04 177.31 169.42 180.91 176.18 184.65 179.72Z" fill="currentColor"/>
  <path d="M93 90L92.41 90.06L91.85 90.23L91.33 90.51L90.88 90.88L90.51 91.33L90.23 91.85L90.06 92.41L90 93L90 115.8L90.06 116.39L90.23 116.95L90.51 117.47L90.88 117.92L91.33 118.29L91.85 118.57L92.41 118.74L93 118.8L115.8 118.8L116.39 118.74L116.95 118.57L117.47 118.29L117.92 117.92L118.29 117.47L118.57 116.95L118.74 116.39L118.8 115.8L118.8 93L118.74 92.41L118.57 91.85L118.29 91.33L117.92 90.88L117.47 90.51L116.95 90.23L116.39 90.06L115.8 90ZM99.31 114.9L98.46 114.74L98.18 114.62L97.81 114.38L97.51 114.05L97.29 113.66L97.15 113.2L97.09 112.85L97.08 96.33L97.15 95.6L97.23 95.29L97.43 94.87L97.81 94.42L98.18 94.18L98.62 94.01L99.31 93.9L109.89 93.9L110.43 93.95L110.99 94.16L111.33 94.44L111.56 94.82L111.69 95.28L111.71 95.97L111.61 96.47L111.4 96.88L111.08 97.19L110.67 97.4L110.31 97.49L109.89 97.52L101.51 97.52L101.51 102.43L109.22 102.43L109.78 102.48L110.34 102.69L110.74 103.06L110.98 103.57L111.06 104.24L110.98 104.9L110.74 105.42L110.34 105.78L109.78 105.99L109.22 106.04L101.51 106.04L101.51 111.28L109.89 111.28L110.56 111.36L110.89 111.49L111.25 111.75L111.46 112L111.61 112.31L111.69 112.68L111.72 113.24L111.67 113.63L111.51 114.08L111.25 114.44L110.89 114.69L110.43 114.85L110.03 114.9Z" fill="currentColor"/>
  <path d="M124.2 90L123.61 90.06L123.05 90.23L122.53 90.51L122.08 90.88L121.71 91.33L121.43 91.85L121.26 92.41L121.2 93L121.2 115.8L121.26 116.39L121.43 116.95L121.71 117.47L122.08 117.92L122.53 118.29L123.05 118.57L123.61 118.74L124.2 118.8L147 118.8L147.59 118.74L148.15 118.57L148.67 118.29L149.12 117.92L149.49 117.47L149.77 116.95L149.94 116.39L150 115.8L150 93L149.94 92.41L149.77 91.85L149.49 91.33L149.12 90.88L148.67 90.51L148.15 90.23L147.59 90.06L147 90ZM136.96 115.21L135.88 115.13L134.86 114.98L133.9 114.76L132.55 114.29L131.72 113.88L130.94 113.41L130.23 112.87L129.28 111.95L128.47 110.89L128.01 110.11L127.61 109.28L127.29 108.4L126.94 106.98L126.79 105.98L126.72 104.93L126.73 103.58L126.84 102.42L127.04 101.31L127.33 100.27L127.71 99.29L128.18 98.38L128.73 97.54L129.35 96.77L130.06 96.08L130.85 95.46L131.71 94.93L132.65 94.48L133.66 94.11L134.74 93.84L135.89 93.67L137.1 93.59L138.27 93.61L139.79 93.79L141.29 94.16L142.42 94.59L143.57 95.24L143.85 95.48L144.07 95.75L144.23 96.05L144.37 96.46L144.42 96.88L144.4 97.19L144.21 97.87L143.94 98.29L143.59 98.63L143.17 98.86L142.78 98.96L142.36 98.95L142.03 98.87L140.64 98.21L139.68 97.9L138.68 97.72L137.67 97.66L136.42 97.75L135.57 97.93L134.56 98.32L133.7 98.88L132.98 99.6L132.42 100.48L132 101.51L131.78 102.38L131.63 103.68L131.63 105.09L131.78 106.38L132.09 107.53L132.42 108.3L132.68 108.77L133.32 109.57L133.9 110.07L134.33 110.36L135.3 110.79L136.13 111L137.03 111.12L137.83 111.14L138.64 111.08L139.47 110.94L140.29 110.72L142.16 109.92L142.5 109.86L142.82 109.86L143.12 109.92L143.48 110.07L143.8 110.28L144.06 110.57L144.26 110.89L144.4 111.25L144.48 111.95L144.42 112.34L144.28 112.74L143.9 113.27L143.24 113.77L142.19 114.3L140.98 114.73L139.65 115.03L138.31 115.19Z" fill="currentColor"/>
  <path d="M93 121.2L92.41 121.26L91.85 121.43L91.33 121.71L90.88 122.08L90.51 122.53L90.23 123.05L90.06 123.61L90 124.2L90 147L90.06 147.59L90.23 148.15L90.51 148.67L90.88 149.12L91.33 149.49L91.85 149.77L92.41 149.94L93 150L115.8 150L116.39 149.94L116.95 149.77L117.47 149.49L117.92 149.12L118.29 148.67L118.57 148.15L118.74 147.59L118.8 147L118.8 124.2L118.74 123.61L118.57 123.05L118.29 122.53L117.92 122.08L117.47 121.71L116.95 121.43L116.39 121.26L115.8 121.2ZM97.47 146.35L96.92 146.27L96.56 146.14L96.14 145.88L95.81 145.53L95.59 145.12L95.47 144.66L95.47 144.29L95.6 143.79L95.96 143.16L101.77 135.46L96.05 127.8L95.77 127.16L95.72 126.67L95.79 126.19L96.05 125.67L96.38 125.32L96.69 125.11L97.16 124.93L97.55 124.86L98.07 124.85L98.52 124.93L98.93 125.08L99.31 125.32L99.77 125.75L100.15 126.2L104.4 132.09L108.65 126.2L109.31 125.47L109.68 125.19L109.97 125.04L110.28 124.93L110.74 124.85L111.27 124.86L111.68 124.92L112.04 125.05L112.36 125.24L112.64 125.48L112.85 125.75L113.01 126.06L113.1 126.4L113.1 127.02L112.85 127.67L107.04 135.46L113 143.41L113.28 144.04L113.34 144.53L113.26 145.01L113 145.53L112.67 145.88L112.36 146.09L111.88 146.27L111.47 146.34L110.94 146.35L110.51 146.27L110.1 146.11L109.73 145.87L109.35 145.54L108.87 144.98L104.39 138.85L100.04 144.85L99.57 145.44L99.09 145.87L98.61 146.16L98.08 146.32Z" fill="currentColor"/>
  <path d="M124.2 121.2L123.61 121.26L123.05 121.43L122.53 121.71L122.08 122.08L121.71 122.53L121.43 123.05L121.26 123.61L121.2 124.2L121.2 147L121.26 147.59L121.43 148.15L121.71 148.67L122.08 149.12L122.53 149.49L123.05 149.77L123.61 149.94L124.2 150L147 150L147.59 149.94L148.15 149.77L148.67 149.49L149.12 149.12L149.49 148.67L149.77 148.15L149.94 147.59L150 147L150 124.2L149.94 123.61L149.77 123.05L149.49 122.53L149.12 122.08L148.67 121.71L148.15 121.43L147.59 121.26L147 121.2ZM136.96 146.41L135.88 146.33L134.86 146.18L133.43 145.82L132.55 145.49L131.72 145.08L130.94 144.61L130.23 144.07L129.28 143.15L128.47 142.09L128.01 141.31L127.61 140.48L127.29 139.6L126.94 138.18L126.79 137.18L126.72 136.13L126.73 134.78L126.84 133.62L127.04 132.51L127.33 131.47L127.71 130.49L128.18 129.58L128.73 128.74L129.35 127.97L130.06 127.28L130.85 126.66L131.71 126.13L132.65 125.68L133.66 125.31L134.74 125.04L135.89 124.87L137.1 124.79L138.27 124.81L139.79 124.99L141.29 125.36L142.42 125.79L143.57 126.44L143.85 126.68L144.07 126.95L144.23 127.25L144.37 127.66L144.42 128.08L144.4 128.39L144.21 129.07L143.94 129.49L143.59 129.83L143.17 130.06L142.78 130.16L142.36 130.15L142.03 130.07L140.64 129.41L139.68 129.1L138.68 128.92L137.67 128.86L136.42 128.95L135.57 129.13L134.56 129.52L133.7 130.08L132.98 130.8L132.42 131.68L132 132.71L131.78 133.58L131.63 134.88L131.63 136.29L131.78 137.58L132.09 138.73L132.42 139.5L132.68 139.97L133.32 140.77L133.9 141.27L134.33 141.56L135.3 141.99L136.13 142.2L137.03 142.32L137.83 142.34L138.64 142.28L139.47 142.14L140.29 141.92L142.16 141.12L142.5 141.06L142.82 141.06L143.12 141.12L143.48 141.27L143.8 141.48L144.06 141.77L144.26 142.09L144.4 142.45L144.48 143.15L144.42 143.54L144.28 143.94L143.9 144.47L143.24 144.97L142.19 145.5L140.98 145.93L139.65 146.23L138.31 146.39Z" fill="currentColor"/>
</svg>
