<svg xmlns="http://www.w3.org/2000/svg" viewBox="0 0 64 64">
  <!-- ECXC compact badge: Nunito Black letters, 2x2, on a spruce tile. The four-tile primary mark lives in src/lib/components/Nav.svelte; colors mirror the header (spruce) and display fireweed tokens in src/app.css. -->
  <rect width="64" height="64" rx="14" fill="oklch(25% 0.035 175)" />
  <g transform="scale(0.64)" fill="oklch(66% 0.21 357)">
    <path d="M43.6 48L44.18 47.9L44.55 47.71L44.89 47.35L45.08 46.85L45.11 46.11L44.98 45.56L44.7 45.15L44.28 44.87L43.46 44.73L35.88 44.73L35.88 39.99L43.37 39.94L43.87 39.75L44.23 39.42L44.45 38.95L44.52 38.35L44.45 37.75L44.23 37.28L43.87 36.95L43.37 36.76L35.88 36.72L35.88 32.27L43.46 32.27L44.07 32.2L44.63 31.91L45.02 31.32L45.11 30.87L45.11 30.37L44.89 29.65L44.37 29.19L43.6 29L33.9 29L33.27 29.1L32.75 29.32L32.35 29.66L32.12 30L31.94 30.54L31.88 31.02L31.87 45.8L31.94 46.46L32.19 47.12L32.54 47.53L32.87 47.75L33.73 47.98ZM63.71 48.28L65.16 48.12L66.6 47.78L67.67 47.37L68.68 46.8L69.15 46.38L69.46 45.78L69.54 45.15L69.38 44.45L69.16 44.08L68.85 43.77L68.48 43.55L68.04 43.44L67.33 43.53L66.03 44.11L65.15 44.38L64.25 44.54L63.37 44.6L62.24 44.52L61.47 44.36L60.56 44L59.78 43.49L59.13 42.84L58.73 42.25L58.32 41.34L58.05 40.29L57.91 39.12L57.91 37.85L58.05 36.67L58.32 35.64L58.73 34.74L59.44 33.81L60.15 33.23L61 32.8L61.72 32.58L62.51 32.45L64.29 32.46L65.77 32.79L67.42 33.53L68 33.58L68.59 33.38L69.1 32.9L69.41 32.25L69.47 31.6L69.27 30.85L68.88 30.35L68.23 29.91L67.27 29.46L66.2 29.11L64.83 28.83L63.46 28.72L62.12 28.76L60.07 29.1L58.26 29.79L56.72 30.78L55.46 32.06L54.5 33.6L53.83 35.39L53.5 37.4L53.49 39.46L53.75 41.27L53.98 42.12L54.44 43.3L54.83 44.03L55.52 45.03L56.64 46.16L57.63 46.87L58.36 47.27L59.96 47.88L61.76 48.21ZM32.57 71.22L33.44 70.96L34.21 70.31L38.5 64.44L42.54 69.99L43.32 70.79L44.02 71.15L44.9 71.22L45.7 70.99L46.28 70.48L46.51 70.01L46.59 69.58L46.5 69.02L46.28 68.57L40.89 61.37L46.15 54.32L46.37 53.74L46.37 53.18L46.15 52.59L45.7 52.13L45.09 51.84L44.24 51.78L43.54 51.94L42.94 52.33L42.35 52.99L38.5 58.32L34.65 52.99L33.89 52.2L33.18 51.85L32.3 51.78L31.52 52.01L30.95 52.52L30.71 52.99L30.64 53.42L30.73 53.98L30.95 54.45L36.12 61.37L30.87 68.34L30.49 69.02L30.41 69.47L30.46 69.91L30.61 70.3L30.86 70.65L31.21 70.93L31.62 71.12ZM63.71 71.28L65.16 71.12L66.6 70.78L67.67 70.37L68.68 69.8L69.15 69.38L69.46 68.78L69.54 68.15L69.38 67.45L69.16 67.08L68.85 66.77L68.48 66.55L68.04 66.44L67.33 66.53L66.03 67.11L65.15 67.38L64.25 67.54L63.37 67.6L62.24 67.52L61.47 67.36L60.56 67L59.78 66.49L59.13 65.84L58.73 65.25L58.32 64.34L58.05 63.29L57.91 62.12L57.91 60.85L58.05 59.67L58.32 58.64L58.73 57.74L59.44 56.81L60.15 56.23L61 55.8L61.72 55.58L62.51 55.45L64.29 55.46L65.77 55.79L67.42 56.53L68 56.58L68.59 56.38L69.1 55.9L69.41 55.25L69.47 54.6L69.27 53.85L68.88 53.35L68.23 52.91L67.27 52.46L66.2 52.11L64.83 51.83L63.46 51.72L62.12 51.76L60.07 52.1L58.26 52.79L56.72 53.78L55.46 55.06L54.5 56.6L53.83 58.39L53.5 60.4L53.49 62.46L53.75 64.27L53.98 65.12L54.44 66.3L54.83 67.03L55.52 68.03L56.64 69.16L57.63 69.87L58.36 70.27L59.96 70.88L61.76 71.21Z" />
  </g>
</svg>
